<?xml version="1.0" encoding="utf-8"?>
<!-- Generator: Adobe Illustrator 24.0.0, SVG Export Plug-In . SVG Version: 6.00 Build 0)  -->
<svg version="1.1" id="Layer_1" xmlns="http://www.w3.org/2000/svg" xmlns:xlink="http://www.w3.org/1999/xlink" x="0px"
	y="0px" viewBox="0 0 1024 998.72" style="enable-background:new 0 0 1024 998.72;" xml:space="preserve">
	<style type="text/css">
		.st0 {
			fill-rule: evenodd;
			clip-rule: evenodd;
			fill: #181616;
		}

		.st1 {
			fill: #181616;
		}
	</style>
	<g>
		<path class="st0" d="M512,0C229.27,0,0,229.22,0,512c0,226.21,146.7,418.13,350.14,485.84c25.58,4.74,34.98-11.11,34.98-24.63
		c0-12.2-0.47-52.54-0.7-95.33c-142.44,30.97-172.49-60.41-172.49-60.41c-23.29-59.18-56.85-74.92-56.85-74.92
		c-46.46-31.78,3.5-31.12,3.5-31.12c51.41,3.61,78.49,52.77,78.49,52.77c45.66,78.27,119.78,55.64,149,42.56
		c4.6-33.09,17.86-55.68,32.51-68.47c-113.72-12.94-233.28-56.85-233.28-253.03c0-55.9,20-101.57,52.76-137.43
		c-5.32-12.9-22.84-64.97,4.96-135.5c0,0,43-13.75,140.83,52.49c40.84-11.35,84.64-17.04,128.15-17.23
		c43.51,0.2,87.34,5.89,128.26,17.23c97.73-66.24,140.66-52.49,140.66-52.49c27.87,70.53,10.34,122.6,5.03,135.5
		c32.83,35.86,52.69,81.53,52.69,137.43c0,196.65-119.78,239.95-233.79,252.63c18.36,15.89,34.73,47.05,34.73,94.81
		c0,68.51-0.59,123.64-0.59,140.51c0,13.63,9.22,29.59,35.16,24.57C877.48,929.99,1024,738.14,1024,512C1024,229.22,794.76,0,512,0z
		" />
		<path class="st1" d="M193.92,735.12c-1.13,2.55-5.13,3.31-8.78,1.56c-3.72-1.67-5.8-5.14-4.6-7.69c1.1-2.62,5.11-3.34,8.82-1.6
		C193.09,729.06,195.21,732.57,193.92,735.12L193.92,735.12z M187.62,730.45" />
		<path class="st1" d="M214.66,758.25c-2.44,2.26-7.22,1.21-10.46-2.37c-3.35-3.57-3.97-8.35-1.5-10.64c2.52-2.26,7.15-1.2,10.5,2.37
		C216.56,751.22,217.21,755.96,214.66,758.25L214.66,758.25z M209.78,753.01" />
		<path class="st1" d="M234.85,787.74c-3.14,2.19-8.27,0.14-11.44-4.41c-3.14-4.55-3.14-10.02,0.07-12.2
		c3.17-2.19,8.23-0.22,11.44,4.3C238.05,780.04,238.05,785.51,234.85,787.74L234.85,787.74z M234.85,787.74" />
		<path class="st1" d="M262.5,816.23c-2.81,3.1-8.79,2.26-13.16-1.96c-4.48-4.12-5.72-9.99-2.91-13.08c2.85-3.1,8.86-2.23,13.26,1.96
		C264.14,807.27,265.49,813.16,262.5,816.23L262.5,816.23z M262.5,816.23" />
		<path class="st1" d="M300.66,832.77c-1.24,4.01-7,5.83-12.79,4.12c-5.8-1.76-9.58-6.45-8.41-10.5c1.2-4.04,6.99-5.94,12.83-4.12
		C298.07,824.03,301.86,828.69,300.66,832.77L300.66,832.77z M300.66,832.77" />
		<path class="st1" d="M342.56,835.83c0.14,4.22-4.78,7.72-10.86,7.8c-6.12,0.14-11.08-3.28-11.14-7.44c0-4.26,4.81-7.72,10.93-7.83
		C337.57,828.25,342.56,831.64,342.56,835.83L342.56,835.83z M342.56,835.83" />
		<path class="st1" d="M381.55,829.2c0.73,4.12-3.5,8.35-9.55,9.47c-5.95,1.09-11.44-1.46-12.2-5.54c-0.74-4.22,3.57-8.45,9.51-9.55
		C375.36,822.54,380.78,825.01,381.55,829.2L381.55,829.2z M381.55,829.2" />
	</g>
</svg>