<svg xmlns="http://www.w3.org/2000/svg" viewBox="797.13 287.426 223.6 223.6">
  <path
    d="M 954 478 Z Z L 954.499 477.92 L 954.499 426.042 C 954.499 413.671 954.278 397.746 937.27 397.746 C 920.016 397.746 917.376 411.224 917.376 425.141 L 917.376 477.916 L 884.25 477.916 L 884.25 371.234 L 916.051 371.234 L 916.051 385.813 L 916.497 385.813 C 922.972 374.742 935.056 368.105 947.874 368.581 C 981.449 368.581 987.64 390.665 987.64 419.396 L 987.626 477.92 Z M 846.872 356.651 C 846.87 356.651 846.869 356.651 846.868 356.651 C 836.322 356.651 827.644 347.974 827.644 337.428 C 827.644 326.882 836.322 318.204 846.868 318.204 C 857.413 318.204 866.09 326.88 866.092 337.424 C 866.092 337.425 866.092 337.426 866.092 337.428 C 866.092 347.972 857.416 356.65 846.872 356.651 M 863.435 477.92 L 830.274 477.92 L 830.274 371.234 L 863.435 371.234 L 863.435 477.92 Z M 1004.14 287.441 L 813.627 287.441 C 804.684 287.34 797.239 294.612 797.13 303.555 L 797.13 494.859 C 797.235 503.807 804.679 511.087 813.627 510.991 L 1004.14 510.991 C 1013.11 511.104 1020.58 503.825 1020.7 494.859 L 1020.7 303.542 C 1020.58 294.58 1013.1 287.309 1004.14 287.427 Z Z Z M 987.626 477.92 L 954.499 477.92 L 954.499 426.042 C 954.499 413.671 954.278 397.746 937.27 397.746 C 920.016 397.746 917.376 411.224 917.376 425.141 L 917.376 477.916 L 884.25 477.916 L 884.25 371.234 L 916.051 371.234 L 916.051 385.813 L 916.497 385.813 C 922.972 374.742 935.056 368.105 947.874 368.581 C 981.449 368.581 987.64 390.665 987.64 419.396 L 987.626 477.92 Z M 846.872 356.651 C 846.87 356.651 846.869 356.651 846.868 356.651 C 836.322 356.651 827.644 347.974 827.644 337.428 C 827.644 326.882 836.322 318.204 846.868 318.204 C 857.413 318.204 866.09 326.88 866.092 337.424 C 866.092 337.425 866.092 337.426 866.092 337.428 C 866.092 347.972 857.416 356.65 846.872 356.651 M 863.435 477.92 L 830.274 477.92 L 830.274 371.234 L 863.435 371.234 L 863.435 477.92 Z M 1004.14 287.441 L 813.627 287.441 C 804.684 287.34 797.239 294.612 797.13 303.555 L 797.13 494.859 C 797.235 503.807 804.679 511.087 813.627 510.991 L 1004.14 510.991 C 1013.11 511.104 1020.58 503.825 1020.7 494.859 L 1020.7 303.542 C 1020.58 294.58 1013.1 287.309 1004.14 287.427"
    fill="#0a66c2" />
</svg>